<svg width="1024" height="1024" viewBox="0 0 1024 1024" fill="none" xmlns="http://www.w3.org/2000/svg">
  <defs>
    <linearGradient id="bg" x1="140" y1="80" x2="884" y2="944" gradientUnits="userSpaceOnUse">
      <stop stop-color="#6EE7D8"/>
      <stop offset="1" stop-color="#0F766E"/>
    </linearGradient>
    <linearGradient id="pin" x1="512" y1="260" x2="512" y2="676" gradientUnits="userSpaceOnUse">
      <stop stop-color="#FFF8E6"/>
      <stop offset="1" stop-color="#FFE6A6"/>
    </linearGradient>
  </defs>
  <rect x="80" y="80" width="864" height="864" rx="220" fill="url(#bg)"/>
  <path d="M250 772C312 694 378 666 452 666C550 666 592 560 636 474C673 401 723 334 806 286" stroke="#D8FFF9" stroke-width="38" stroke-linecap="round" stroke-dasharray="1 78"/>
  <ellipse cx="304" cy="760" rx="44" ry="65" transform="rotate(-28 304 760)" fill="#0B4F4A"/>
  <ellipse cx="259" cy="694" rx="34" ry="52" transform="rotate(-28 259 694)" fill="#0B4F4A"/>
  <circle cx="352" cy="683" r="14" fill="#0B4F4A"/>
  <circle cx="323" cy="637" r="13" fill="#0B4F4A"/>
  <circle cx="289" cy="610" r="12" fill="#0B4F4A"/>
  <circle cx="235" cy="631" r="12" fill="#0B4F4A"/>
  <circle cx="208" cy="588" r="11" fill="#0B4F4A"/>
  <circle cx="179" cy="560" r="10" fill="#0B4F4A"/>
  <path d="M512 236C385 236 304 328 304 439C304 545 395 618 473 726C491 751 533 751 551 726C629 618 720 545 720 439C720 328 639 236 512 236Z" fill="url(#pin)"/>
  <circle cx="512" cy="444" r="124" fill="#134E4A"/>
  <rect x="406" y="365" width="212" height="150" rx="34" fill="#FFF8E6"/>
  <rect x="455" y="333" width="58" height="32" rx="16" fill="#FFF8E6"/>
  <circle cx="512" cy="440" r="52" fill="#FDBA74"/>
  <circle cx="512" cy="440" r="31" fill="#FFF8E6"/>
  <circle cx="573" cy="394" r="12" fill="#134E4A"/>
</svg>
